<?xml version="1.0" encoding="UTF-8" standalone="no"?>
<!-- Created with Inkscape (http://www.inkscape.org/) -->

<svg
   xmlns:dc="http://purl.org/dc/elements/1.1/"
   xmlns:cc="http://creativecommons.org/ns#"
   xmlns:rdf="http://www.w3.org/1999/02/22-rdf-syntax-ns#"
   xmlns:svg="http://www.w3.org/2000/svg"
   xmlns="http://www.w3.org/2000/svg"
   xmlns:sodipodi="http://sodipodi.sourceforge.net/DTD/sodipodi-0.dtd"
   xmlns:inkscape="http://www.inkscape.org/namespaces/inkscape"
   id="svg2"
   version="1.1"
   inkscape:version="0.48.4 r9939"
   width="235.88625"
   height="236.84375"
   xml:space="preserve"
   sodipodi:docname="Telematica.ai"><metadata
     id="metadata8"><rdf:RDF><cc:Work
         rdf:about=""><dc:format>image/svg+xml</dc:format><dc:type
           rdf:resource="http://purl.org/dc/dcmitype/StillImage" /><dc:title></dc:title></cc:Work></rdf:RDF></metadata><defs
     id="defs6"><clipPath
       clipPathUnits="userSpaceOnUse"
       id="clipPath16"><path
         d="m 0,841.89 595.28,0 L 595.28,0 0,0 0,841.89 z"
         id="path18"
         inkscape:connector-curvature="0" /></clipPath></defs><sodipodi:namedview
     pagecolor="#ffffff"
     bordercolor="#666666"
     borderopacity="1"
     objecttolerance="10"
     gridtolerance="10"
     guidetolerance="10"
     inkscape:pageopacity="0"
     inkscape:pageshadow="2"
     inkscape:window-width="640"
     inkscape:window-height="480"
     id="namedview4"
     showgrid="false"
     fit-margin-top="0"
     fit-margin-left="0"
     fit-margin-right="0"
     fit-margin-bottom="0"
     inkscape:zoom="0.22425732"
     inkscape:cx="117.51811"
     inkscape:cy="115.03735"
     inkscape:window-x="0"
     inkscape:window-y="0"
     inkscape:window-maximized="0"
     inkscape:current-layer="g10" /><g
     id="g10"
     inkscape:groupmode="layer"
     inkscape:label="Telematica"
     transform="matrix(1.25,0,0,-1.25,-254.53188,647.98762)"><g
       id="g12"><g
         id="g14"
         clip-path="url(#clipPath16)"><g
           id="g20"
           transform="translate(368.9199,421.3301)"><path
             d="m 0,0 -13.697,-4.475 c -1.654,-0.54 -2.381,-0.096 -2.892,1.464 l -1.636,5.061 -1.425,4.31 c 0,0 -1.454,4.434 -1.651,5.056 -0.511,1.56 -0.185,2.348 1.469,2.888 l 13.698,4.472 c 1.654,0.54 2.381,0.097 2.891,-1.464 L 1.469,2.89 C 1.979,1.329 1.654,0.541 0,0 m -58.981,-37.123 c -15.661,0 -28.355,12.694 -28.355,28.354 0,15.659 12.694,28.354 28.355,28.354 15.658,0 28.354,-12.695 28.354,-28.354 0,-15.66 -12.696,-28.354 -28.354,-28.354 m 30.348,-0.589 c 1.385,1.048 2.219,0.868 3.209,-0.442 l 9.153,-12.101 c 0.99,-1.308 0.942,-2.159 -0.447,-3.211 l -11.491,-8.693 c -1.387,-1.048 -2.22,-0.868 -3.211,0.441 l -3.195,4.254 -2.752,3.61 c 0,0 -2.819,3.716 -3.208,4.239 -0.991,1.308 -0.941,2.159 0.447,3.211 l 11.495,8.692 z m -48.085,-8.692 c 1.388,-1.052 1.438,-1.903 0.447,-3.211 -0.389,-0.523 -3.208,-4.239 -3.208,-4.239 l -2.752,-3.61 -3.195,-4.254 c -0.991,-1.309 -1.824,-1.489 -3.21,-0.441 l -11.492,8.693 c -1.389,1.052 -1.437,1.903 -0.447,3.211 l 9.154,12.101 c 0.989,1.31 1.823,1.49 3.209,0.442 l 11.494,-8.692 z m 10.865,78.608 c -1.738,0.005 -2.293,0.652 -2.289,2.295 l 0.032,5.32 -0.006,4.539 c 0,0 0.006,4.664 0.011,5.316 0.002,1.642 0.558,2.288 2.298,2.285 l 14.412,-0.037 c 1.737,-0.004 2.292,-0.651 2.288,-2.294 l -0.038,-15.172 c -0.004,-1.641 -0.556,-2.289 -2.298,-2.286 l -14.41,0.034 z m -29.89,-20.876 c -0.197,-0.621 -1.65,-5.055 -1.65,-5.055 l -1.426,-4.31 -1.636,-5.061 c -0.51,-1.56 -1.238,-2.004 -2.891,-1.464 l -13.697,4.475 c -1.655,0.541 -1.979,1.329 -1.469,2.89 l 4.712,14.423 c 0.509,1.56 1.237,2.003 2.89,1.463 l 13.699,-4.472 c 1.654,-0.54 1.979,-1.328 1.468,-2.889 M 4.97,1.451 -1.236,20.447 c -0.671,2.055 -1.63,2.64 -3.808,1.928 l -18.042,-5.89 c -2.179,-0.712 -2.606,-1.75 -1.935,-3.804 0.261,-0.819 2.175,-6.659 2.175,-6.659 l -5.281,-1.726 c -4.701,11.119 -15.251,19.156 -27.791,20.273 l -0.002,5.1 7.004,-0.021 c 2.162,0 3.016,0.729 3.016,3.021 l 0,18.978 c 0,2.292 -0.854,3.021 -3.016,3.021 l -19.984,0 c -2.163,0 -3.016,-0.729 -3.016,-3.021 L -71.92,32.669 c 0,-2.292 0.854,-3.021 3.016,-3.021 0.859,-0.005 7.005,0 7.005,0 l 0,-5.077 C -74.397,23.466 -84.917,15.487 -89.65,4.434 l -4.86,1.588 c 0,0 1.914,5.84 2.175,6.659 0.672,2.054 0.244,3.092 -1.935,3.804 l -18.042,5.89 c -2.177,0.712 -3.136,0.127 -3.807,-1.928 l -6.206,-18.996 c -0.672,-2.055 -0.244,-3.094 1.934,-3.805 l 18.04,-5.894 c 2.179,-0.712 3.137,-0.128 3.809,1.928 l 2.154,6.664 4.896,-1.601 c -0.546,-2.396 -0.844,-4.888 -0.844,-7.449 0,-10.184 4.56,-19.297 11.743,-25.426 l -2.972,-3.918 c 0,0 -4.894,3.718 -5.581,4.232 -1.723,1.306 -2.843,1.241 -4.229,-0.585 l -11.463,-15.126 c -1.385,-1.825 -1.145,-2.923 0.577,-4.229 l 15.925,-12.073 c 1.723,-1.308 2.844,-1.242 4.229,0.584 l 11.466,15.123 c 1.385,1.826 1.146,2.923 -0.577,4.229 l -5.595,4.214 3.102,4.087 c 4.935,-2.875 10.668,-4.529 16.792,-4.529 6.226,0 12.051,1.708 17.042,4.673 l 3.273,-4.315 -5.594,-4.214 c -1.723,-1.306 -1.962,-2.403 -0.577,-4.229 l 11.466,-15.123 c 1.385,-1.826 2.506,-1.892 4.229,-0.584 l 15.925,12.073 c 1.722,1.306 1.962,2.404 0.577,4.229 l -11.463,15.126 c -1.386,1.826 -2.506,1.891 -4.229,0.585 -0.687,-0.514 -5.581,-4.232 -5.581,-4.232 l -3.178,4.19 c 7.057,6.127 11.527,15.157 11.527,25.238 0,2.51 -0.285,4.951 -0.81,7.302 l 5.344,1.748 2.155,-6.664 c 0.671,-2.056 1.629,-2.64 3.808,-1.928 l 18.04,5.894 c 2.179,0.711 2.607,1.75 1.935,3.805"
             style="fill:#75612f;fill-opacity:1;fill-rule:nonzero;stroke:none"
             id="path22"
             inkscape:connector-curvature="0" /></g><g
           id="g24"
           transform="translate(309.5215,338.0391)"><path
             d="m 0,0 c -14.937,0 -28.842,4.385 -40.531,11.913 -0.822,0.528 -1.632,1.071 -2.431,1.631 l -20.892,-12.946 -8.809,8.232 12.81,20.992 c -2.898,3.834 -5.435,7.956 -7.563,12.315 l -25.355,-0.112 -3,9.01 21.308,15.239 c -0.33,2.859 -0.519,5.76 -0.519,8.707 0,1.191 0.035,2.373 0.09,3.551 l -21.883,14.51 2.937,11 24.301,-1.01 c 1.973,4.885 4.429,9.524 7.338,13.836 l -13.816,20.368 9.015,8.969 20.646,-12.311 c 3.903,3.076 8.118,5.772 12.592,8.033 l -0.931,24.595 12.797,3.954 12.127,-21.167 c 3.2,0.416 6.456,0.654 9.769,0.654 1.508,0 3.003,-0.058 4.489,-0.146 l 13.214,21.211 10.109,-2.844 0.234,-23.663 c 4.723,-1.907 9.208,-4.272 13.396,-7.055 l 19.974,12.385 9.897,-9.262 -11.861,-19.939 c 1.018,-1.323 1.999,-2.674 2.929,-4.066 7.955,-11.904 12.6,-26.21 12.6,-41.603 C 74.981,33.568 41.413,0 0,0 m 67.994,121.81 11.319,20.779 -16.897,16.262 -23.687,-14.688 -3.134,1.733 -1.491,28.611 -20.11,5.844 -14.64,-23.5 -4.375,-0.5 -14.688,22.562 -22.797,-6.953 0.985,-25.984 -5.094,-3.094 -21.906,13.062 -17.016,-17.968 14.264,-21.029 -2.165,-6.013 -26.521,0.01 -5.937,-21 23.541,-15.609 -0.125,-4.651 -22.041,-14.73 7,-21.01 25.958,0.115 3.209,-4.166 -13.709,-22.464 17.625,-16.542 19.376,12.794 c 12.864,-8.105 28.088,-12.805 44.416,-12.805 46.095,0 83.459,37.363 83.459,83.459 0,17.639 -5.479,33.997 -14.819,47.475"
             style="fill:#75612f;fill-opacity:1;fill-rule:nonzero;stroke:none"
             id="path26"
             inkscape:connector-curvature="0" /></g></g></g></g></svg>