<?xml version="1.0" encoding="utf-8"?><!DOCTYPE svg PUBLIC "-//W3C//DTD SVG 1.1//EN" "http://www.w3.org/Graphics/SVG/1.1/DTD/svg11.dtd"><svg version="1.1" id="Contours" xmlns="http://www.w3.org/2000/svg" xmlns:xlink="http://www.w3.org/1999/xlink" x="0px" y="0px" width="773.171326px" height="773.171326px" viewBox="-0.000000 -0.000000 773.171326 988.262512" enable-background="new 0 0 773.171326 773.171326" xml:space="preserve" stroke="black" fill="none" stroke-linecap='round' stroke-linejoin='round'><path class="selected"  fill="#000000" opacity="1.000000" stroke="none" 
 	d="
M123.473916 353.746595 C109.987962 349.424055 100.464700 340.245527 91.197526 330.567152 C85.046067 324.142714 78.637940 317.925642 71.964730 312.047071 C57.535489 299.336012 39.582002 291.090681 26.828221 276.176771 C13.899599 261.058424 5.085251 243.914701 0.270240 224.675718 C-0.082990 223.264341 -0.107203 221.589888 0.300375 220.210539 C0.935420 218.061369 1.972555 214.403746 3.016657 214.341093 C5.197723 214.210203 8.322818 215.393232 9.607374 217.118300 C17.046941 227.109190 24.080539 237.403151 31.214005 247.620726 C33.418736 250.778654 35.333470 250.900770 37.173230 247.595060 C38.437493 245.323423 40.002866 242.817274 40.101998 240.362181 C40.978661 218.649870 42.609044 196.889799 41.872590 175.216673 C41.337102 159.457747 37.086610 143.860258 35.371552 128.095152 C33.978017 115.285543 32.505387 102.224196 33.515031 89.468191 C35.556764 63.672667 42.929192 38.929922 51.995068 14.731749 C53.021512 11.992032 54.164792 9.295396 55.159829 6.544754 C56.962754 1.560823 61.205117 1.555643 65.160630 2.220812 C66.410607 2.431011 68.133210 5.331927 68.057885 6.926727 C67.794984 12.492912 66.889443 18.033163 66.131822 23.570091 C65.573762 27.648544 64.621056 31.686052 64.279862 35.778128 C63.737031 42.288324 63.412217 48.825235 63.252137 55.357145 C62.834931 72.381292 61.966958 89.424589 62.420091 106.429831 C62.752450 118.902403 64.440774 131.397398 66.377717 143.748640 C67.730836 152.377012 74.004037 153.812254 80.907937 147.824705 C86.197259 143.237440 90.233437 137.696287 92.514192 131.134550 C99.294061 111.628881 111.203980 95.757010 126.533654 82.253683 C127.907372 81.043638 129.649590 80.156347 131.360513 79.465391 C132.206002 79.123938 133.899972 79.210424 134.266961 79.747587 C134.823831 80.562696 134.986276 82.127836 134.579308 83.048628 C128.664040 96.432165 122.659470 109.776648 116.606957 123.098982 C111.190217 135.021894 105.709573 146.915937 100.215493 158.803495 C97.174691 165.382887 92.442979 170.309828 86.009843 173.780088 C78.925118 177.601866 75.549783 184.096357 74.235520 191.776106 C71.428300 208.179930 77.991929 222.924498 82.723885 237.923338 C90.139283 261.427839 101.272706 283.227888 115.374490 303.339277 C123.091599 314.345076 134.504357 320.934828 147.681710 323.967817 C164.132852 327.754316 180.600503 331.485792 197.135095 334.880262 C200.972787 335.668104 205.152551 335.361860 209.098687 334.903242 C213.927422 334.341993 216.106423 329.590132 213.332436 324.778273 C209.653970 318.397383 205.541253 312.193953 200.988870 306.406904 C194.167458 297.735426 186.073876 289.950514 184.085000 278.378889 C183.233575 273.425215 181.635323 268.538801 181.334863 263.563917 C180.650018 252.224836 180.602090 240.848448 180.213708 229.490004 C179.584939 211.100782 178.823968 192.715834 178.264947 174.324629 C178.099496 168.881620 181.421258 165.944654 186.528756 165.950026 C192.306939 165.956114 191.473596 170.770613 192.102715 173.874601 C195.042504 188.379149 197.596627 202.962797 200.211373 217.532026 C202.273827 229.024000 204.172814 240.545317 206.238274 252.036726 C208.306741 263.544844 212.865045 273.903273 221.118340 282.354322 C231.131997 292.607893 241.988198 302.106428 249.384286 314.649702 C253.002725 320.786329 256.314614 327.107924 262.727120 331.064589 C270.257699 335.711165 279.146432 333.619093 282.912515 325.764875 C291.715218 307.406569 298.845376 288.430922 302.150582 268.262922 C304.211678 255.686445 306.013131 243.031813 307.101754 230.341108 C308.303506 216.331831 308.176431 202.209883 309.329141 188.194670 C310.522866 173.681578 312.443612 159.223036 314.300424 144.773268 C314.791024 140.955183 315.987557 137.170424 317.349893 133.554991 C317.786294 132.396788 319.799081 131.832594 321.090615 130.996595 C321.468362 132.049604 322.001595 133.074217 322.199929 134.160002 C324.239053 145.322752 326.535287 156.450773 328.144814 167.676649 C330.141610 181.603575 331.618478 195.606962 333.190438 209.591871 C333.734200 214.429441 333.972909 219.306623 334.205575 224.172667 C334.605172 232.530256 334.986764 240.890913 335.192666 249.254789 C335.349893 255.640516 335.922707 262.128614 335.066476 268.401320 C333.644753 278.816908 331.655312 289.203566 329.115365 299.405836 C325.897744 312.330153 321.331399 324.931135 318.388345 337.907789 C315.694192 349.787092 318.161080 361.706068 321.325387 373.266432 C322.886636 378.970198 318.755654 383.239729 313.703774 383.114424 C303.166909 382.853193 292.873330 385.035353 283.733590 390.234205 C276.877908 394.133833 270.242257 398.881697 268.101113 407.481672 C267.805856 408.667616 267.117135 411.566420 264.312478 408.726423 C257.142556 401.466047 249.222894 394.918776 242.332833 387.416121 C233.508828 377.807539 223.500604 370.210737 210.790566 367.122419 C201.304131 364.817427 191.587655 363.251448 181.886086 362.083387 C162.445382 359.742720 142.710458 359.603407 123.473916 353.746595 z"/><path class="selected"  fill="#000000" opacity="1.000000" stroke="none" 
 	d="
M592.223916 254.996595 C592.368386 267.050764 591.939065 278.715742 586.033303 288.896650 C582.213418 295.481672 576.872231 301.295851 571.629311 306.910780 C566.866738 312.011366 563.111611 317.499342 561.551797 324.267744 C560.971658 326.785261 560.912209 329.579115 561.335854 332.127180 C561.751626 334.628279 563.153603 335.534834 566.441873 335.173353 C588.395120 332.760054 610.096414 329.445204 631.051492 322.058180 C643.295144 317.742109 652.679543 310.153730 660.130471 299.660048 C673.345742 281.047895 683.324136 260.840376 690.452248 239.219053 C695.095803 225.134108 699.250771 210.870375 699.164834 195.854933 C699.107583 185.847044 695.055154 178.191710 685.934915 172.874327 C681.367837 170.211592 676.932778 165.964415 674.449685 161.351057 C668.105569 149.564528 662.783364 137.218794 657.256997 125.004179 C652.623940 114.764135 648.307534 104.381216 643.791543 94.087584 C642.367654 90.841925 640.651833 87.723005 639.264565 84.463148 C638.530251 82.737631 638.214456 80.834028 637.709695 79.010832 C639.632119 79.590422 641.617410 80.016569 643.466592 80.774794 C654.530251 85.311171 661.678262 93.970068 667.171731 104.094412 C672.843362 114.546850 677.659707 125.484983 683.709268 135.701979 C686.962502 141.196318 691.721902 145.927748 696.355569 150.433882 C699.906167 153.886717 703.919839 152.509138 705.147012 147.585035 C707.415810 138.481581 710.004495 129.349974 711.034585 120.071867 C712.456216 107.266645 713.329568 94.295248 713.003335 81.431395 C712.687112 68.959372 710.526772 56.536486 709.233437 44.086096 C708.186318 34.006399 706.782937 23.932663 706.444558 13.825918 C706.312295 9.875536 708.334756 5.701074 709.998208 1.901134 C710.952859 -0.279525 712.585793 -1.081253 714.308816 2.213730 C724.488931 21.681484 732.219460 41.912691 736.362466 63.610952 C739.552956 80.319967 740.996560 97.100599 740.030496 113.963575 C739.426492 124.507643 736.815652 134.926588 735.330117 145.433455 C734.121377 153.982496 733.064980 162.561995 732.272500 171.158552 C731.393411 180.695036 730.038247 190.300123 730.416665 199.814634 C731.038796 215.455458 732.853372 231.050840 734.298989 246.652967 C734.407021 247.818235 735.723916 249.893461 736.241372 249.822172 C738.500161 249.511091 741.191384 249.133513 742.750527 247.711165 C745.015481 245.644835 746.427712 242.649000 748.226418 240.065428 C753.270303 232.820417 758.312539 225.574110 763.395913 218.356825 C763.963235 217.551405 764.673684 216.575270 765.521890 216.294218 C767.443459 215.657484 769.591103 214.882338 771.445107 215.232344 C772.285439 215.390974 773.099770 218.077482 773.151284 219.642759 C773.525796 231.016035 768.591348 240.933012 763.863320 250.754408 C753.634683 272.001692 737.353677 287.820662 717.460183 299.914595 C702.928994 308.748671 691.668496 320.918989 680.308206 333.229078 C669.858071 344.552839 657.220132 353.020948 641.780435 355.874220 C631.118386 357.844587 620.236611 358.609755 609.465432 360.009199 C593.472024 362.087141 577.295510 362.410475 561.708779 367.789137 C543.598306 374.038649 529.950173 385.357954 519.190835 400.774092 C517.710366 402.895338 516.017312 404.999220 514.011941 406.594893 C510.210610 409.619581 505.130837 408.332319 502.820565 404.093580 C496.961007 393.342970 487.093514 387.934248 475.866067 385.160719 C468.327554 383.298475 460.422677 382.766706 452.641763 382.120405 C449.892220 381.892042 450.949685 380.813673 451.221169 379.546034 C452.893197 371.738478 455.247811 364.000563 456.063210 356.103956 C457.308389 344.045271 453.084939 332.699415 450.050118 321.197065 C446.705026 308.518660 443.208260 295.760725 441.465371 282.810316 C439.431588 267.698774 438.334451 252.332930 438.480843 237.093260 C438.619698 222.635771 440.759316 208.185041 442.267404 193.757292 C443.379189 183.121016 444.724496 172.502226 446.272378 161.920500 C447.712014 152.078840 449.535409 142.292524 451.318673 132.505308 C451.378182 132.178694 453.414803 131.743757 453.557595 131.970793 C455.872811 135.651747 459.088174 139.196638 459.987496 143.241926 C461.513741 150.107206 461.778756 157.289595 462.177651 164.361067 C462.998238 178.907896 463.369515 193.481291 464.285378 208.021101 C464.974374 218.958525 465.720101 229.936430 467.348397 240.759748 C469.500710 255.066450 471.929086 269.389784 475.377175 283.426283 C478.540841 296.305128 482.655435 309.031508 487.481027 321.383619 C489.610146 326.833571 493.189370 332.282698 500.734933 333.227827 C505.939034 333.879683 509.778512 332.200331 513.381326 329.263990 C519.308083 324.433729 522.416787 317.475203 526.693093 311.364698 C532.243874 303.432997 538.837808 296.118818 545.680154 289.231794 C554.433999 280.420820 562.312539 271.077467 566.087258 259.146742 C568.484658 251.569258 569.775613 243.611479 571.173013 235.754911 C573.306374 223.760862 574.905618 211.670713 577.104775 199.689848 C578.855081 190.154249 581.142434 180.716444 583.234597 171.244780 C584.034951 167.621428 585.889199 164.351622 589.993081 165.167479 C593.584084 165.881376 594.271951 169.388807 594.248208 172.849058 C594.179665 182.847456 594.350442 192.848616 594.192300 202.844984 C593.988870 215.707487 593.611855 228.568159 593.193520 241.425840 C593.051614 245.788649 592.557229 250.140013 592.223916 254.996595 z"/><path class="selected"  fill="#000000" opacity="1.000000" stroke="none" 
 	d="
M544.473916 839.746595 C547.127175 847.257765 541.895791 851.271132 537.907876 855.737196 C536.651894 857.143751 534.780373 857.985060 533.433999 859.328932 C502.887521 889.820204 472.374978 920.345472 441.856088 950.864454 C441.149087 951.571425 440.485146 952.328749 439.728097 952.977308 C434.413491 957.530348 431.006875 957.100660 427.253060 951.103102 C423.125161 944.507948 418.974038 937.904554 415.306008 931.051649 C412.561959 925.925062 406.921792 925.775526 403.019204 928.763563 C393.246072 936.246412 393.096719 946.573744 398.838754 955.994276 C400.088571 958.044752 402.181069 959.622816 404.027017 961.258802 C406.582925 963.524122 407.545113 969.802687 404.808877 972.723829 C399.890389 977.974440 394.460458 982.761976 389.040627 987.510633 C388.157693 988.284193 385.626595 988.546644 384.880807 987.887342 C379.513680 983.143202 373.762978 978.598219 369.445504 972.981764 C366.433297 969.063246 368.300332 963.991346 370.958383 959.692457 C373.563485 955.479322 376.280312 951.234571 378.112649 946.668470 C380.712045 940.190687 373.876321 928.410292 367.207711 926.996595 C362.709451 926.042982 359.757363 928.118788 356.194833 934.215467 C352.499551 940.539198 348.731027 946.832289 344.695382 952.941175 C341.486092 957.799391 339.543527 957.798170 335.326150 953.591749 C326.359109 944.648085 317.458016 935.637892 308.447457 926.738417 C285.871072 904.440077 263.262216 882.174513 240.625588 859.937330 C238.197411 857.552015 235.506158 855.433729 232.927453 853.202467 C225.869546 847.095472 227.991601 839.526686 230.355767 832.527174 C235.284326 817.935133 240.951409 803.593885 246.181374 789.101332 C247.408273 785.701674 247.733987 785.854689 250.472924 788.430372 C256.490212 794.088820 263.121377 799.172438 269.890023 803.939772 C292.561349 819.907972 315.378854 835.669325 338.188729 851.440016 C352.942056 861.640455 367.681893 871.868971 382.699105 881.669081 C384.651864 882.943434 388.927529 882.802382 390.940102 881.492811 C403.998238 872.995375 416.727639 863.992750 429.564767 855.155714 C450.959939 840.427137 472.391091 825.750502 493.733865 810.946425 C503.214120 804.370619 512.514748 797.535719 521.900002 790.822828 C524.746682 788.786696 528.087441 789.877699 529.223306 793.207472 C534.104470 807.516615 538.998208 821.821547 543.832986 836.146376 C544.184731 837.188429 544.103738 838.376417 544.473916 839.746595 z"/><path class="selected"  fill="#000000" opacity="1.000000" stroke="none" 
 	d="
M454.973916 682.246595 C465.486276 687.092299 475.685006 691.838087 486.036172 696.224257 C491.755013 698.647596 497.562508 698.797499 503.279702 695.514479 C509.030190 692.212355 511.230264 687.229506 509.222726 680.856642 C508.897866 679.825453 508.092873 678.680922 508.318612 677.794813 C508.819283 675.829847 508.498422 672.651747 512.541055 674.705824 C519.821023 678.404860 524.892678 683.872328 526.117349 691.937819 C527.489480 700.974562 523.385415 708.352552 516.628579 713.861586 C512.600320 717.146071 507.637338 719.356520 502.914773 721.685255 C500.702981 722.775892 499.384988 723.388441 502.034097 725.293470 C505.976449 728.128675 503.692422 730.107008 500.792428 730.759108 C496.734017 731.671949 492.463509 731.892653 488.279031 731.933912 C482.249764 731.993422 476.999368 733.381361 471.689706 736.707167 C464.953988 740.925978 456.706033 741.025526 449.129586 739.789747 C439.810769 738.269606 430.491464 735.905775 421.625802 732.665907 C410.178597 728.482618 400.500588 721.210890 392.030923 712.358595 C386.150735 706.212782 387.125832 706.192884 381.623422 712.191237 C369.945474 724.921644 355.566689 733.123793 339.091439 737.489454 C327.459206 740.571852 315.496865 741.165846 303.529855 738.996595 C295.540688 730.248060 283.514199 734.718275 274.218331 730.079481 C271.272958 728.609755 267.611062 728.261366 271.158578 723.844496 C271.339974 723.618544 270.710793 722.221815 270.225411 722.056654 C259.354348 718.358046 251.751931 711.704847 248.736932 700.128065 C246.951836 693.273756 250.472543 679.401258 257.891549 675.054945 C259.580361 674.065626 262.797769 674.098768 264.417306 675.103224 C265.614327 675.845594 266.374246 679.587660 265.558633 680.844130 C263.228433 684.433668 262.149972 688.024366 265.348092 690.957838 C268.196084 693.570204 271.891763 695.712843 275.586617 696.850416 C282.696359 699.039442 289.251626 695.977308 295.592782 693.090406 C307.934762 687.471449 320.234811 681.758436 332.499825 675.973341 C338.683480 673.056715 338.801583 671.181166 333.209939 667.503859 C328.802316 664.605238 329.791573 660.033583 330.392770 656.258986 C331.509591 649.246901 332.670236 642.186964 337.134866 636.068007 C342.138863 629.209913 353.238748 625.653151 360.518929 633.640821 C365.771005 639.403334 370.945321 645.282362 379.404488 647.141066 C388.958657 649.240309 397.352822 647.707594 404.912148 641.736342 C408.494393 638.906630 411.708321 635.614454 415.142007 632.591932 C422.499673 626.115309 431.734200 628.149366 435.982217 635.861403 C439.497567 642.243361 441.384103 649.678602 443.069192 656.863661 C444.440957 662.712599 440.241464 669.595839 435.593026 671.017653 C435.090920 671.171156 434.678109 671.616652 434.223916 671.926649 C434.776437 672.335890 435.279641 672.848951 435.889108 673.138075 C442.157510 676.111708 448.443093 679.049147 454.973916 682.246595 z"/><path class="selected"  fill="#000000" opacity="1.000000" stroke="none" 
 	d="
M370.973916 537.746595 C368.431558 549.227125 363.043374 559.207533 357.523019 569.009596 C353.295998 576.515150 348.602792 583.946180 342.989724 590.435316 C336.041421 598.468153 326.065682 601.942823 315.780557 602.822645 C303.315072 603.889113 290.702554 604.414015 278.220010 603.807753 C262.383737 603.038466 247.239877 599.231520 235.769875 586.994703 C229.187417 579.972120 226.428719 571.264051 225.184930 561.882032 C223.682778 550.550917 222.674050 539.060011 219.884271 528.034925 C218.544701 522.741041 213.974618 518.038404 210.195748 513.645948 C205.596032 508.299330 203.879449 503.365553 206.223885 498.577528 C208.236321 494.467512 214.886758 491.236342 220.779946 493.244093 C225.690423 494.917097 228.909097 492.518873 231.964532 490.501997 C239.629662 485.442244 247.834802 483.130110 256.891671 482.956831 C263.923867 482.822310 270.946145 482.142866 277.978097 482.029829 C304.622353 481.601545 330.527902 485.147993 355.385934 495.490339 C367.008981 500.326185 379.552102 501.721174 392.096963 500.893934 C403.375253 500.150282 414.151284 496.793409 424.782998 492.987318 C437.344033 488.490583 450.166146 484.841414 463.562508 484.044172 C478.273477 483.168684 493.031838 481.820326 507.721841 482.262587 C519.534341 482.618269 531.282205 484.783674 542.138528 490.745710 C546.177041 492.963575 551.790261 492.935743 556.669961 492.865156 C565.654824 492.735182 570.072976 500.524977 566.075356 508.173780 C563.247048 513.585218 558.558633 518.010084 555.594155 523.369581 C553.393899 527.347548 551.547097 532.088942 551.422891 536.542738 C551.020974 550.959730 549.574441 565.121840 543.146584 578.183973 C535.839089 593.033461 523.422402 600.812452 506.988625 601.957899 C494.612130 602.820448 482.208810 603.860426 469.821755 603.807447 C461.747506 603.772963 453.255685 603.134108 445.745675 600.500013 C439.739144 598.393202 434.168038 593.564467 429.754037 588.714796 C421.303048 579.429823 415.004403 568.545790 409.762399 557.079115 C404.863900 546.364027 401.880593 535.152906 400.157754 523.539747 C399.942819 522.090895 399.047585 519.779005 398.089181 519.565565 C393.010018 518.434095 387.519021 516.418287 382.718667 517.396864 C375.159219 518.937880 370.717996 523.138197 371.211434 532.492018 C371.299203 534.155775 371.223916 535.828199 370.973916 537.746595 M353.723916 516.996595 C351.751504 514.663282 349.956368 512.146925 347.773019 510.031263 C341.488625 503.941694 333.407540 501.345350 325.180917 499.558729 C313.664987 497.057844 302.077493 493.924452 290.411111 493.371229 C280.395821 492.896315 270.081185 495.004622 260.169625 497.195295 C251.512994 499.108564 242.868127 502.825056 239.783471 512.184034 C237.395242 519.429945 235.820977 527.183180 235.425469 534.790968 C234.830590 546.233717 237.242974 557.527052 241.343240 568.204420 C244.708016 576.966566 249.386788 584.901503 259.416482 588.054213 C275.975533 593.259474 292.850869 594.352919 309.862313 591.855116 C318.472939 590.590834 326.446999 586.747450 332.411202 580.179091 C341.315041 570.373304 349.016152 559.685560 352.936959 546.768568 C355.861398 537.134108 358.529122 527.461195 353.723916 516.996595 M419.223916 544.496595 C421.341958 548.947950 423.072946 553.641493 425.670083 557.793165 C429.430581 563.804457 434.040444 569.279921 437.891274 575.240187 C445.925607 587.675489 457.886086 592.734144 471.946542 592.846205 C482.820687 592.932875 493.764871 592.160475 504.570870 590.872206 C518.457314 589.216627 527.175759 580.747511 532.271218 567.940077 C538.348184 552.665602 538.154580 536.776442 537.092080 520.876173 C536.597268 513.471083 532.878396 506.849073 526.395852 503.116438 C509.523751 493.401533 490.898812 491.345076 472.117837 494.264326 C459.790810 496.180372 447.690225 500.152357 435.812600 504.163954 C426.874520 507.182692 419.316811 511.786268 417.884316 523.216749 C416.991311 530.342360 418.151986 536.787306 419.223916 544.496595 M549.223916 502.496595 C547.890603 504.059431 546.158791 505.463118 545.436990 507.270216 C545.179421 507.915022 547.153665 509.983229 548.483743 510.622572 C551.500588 512.072584 557.348123 509.424696 559.283730 506.517103 C561.612466 503.019056 559.290200 501.592909 556.710183 501.145155 C554.497292 500.761122 552.061257 501.663282 549.223916 502.496595 M227.223916 508.496595 C229.141824 505.794477 228.816766 503.722487 225.434365 502.736799 C223.061028 502.045179 220.643212 501.266798 218.209390 501.119337 C216.920434 501.041212 214.627358 502.018232 214.431466 502.888777 C214.100137 504.361403 214.536843 506.831678 215.597329 507.639143 C218.877358 510.136549 222.512353 512.885023 227.223916 508.496595 z"/><path class="selected"  fill="#000000" opacity="1.000000" stroke="none" 
 	d="
M648.973916 430.746595 C635.451638 444.287367 621.707253 457.107832 604.090127 464.399916 C596.553201 467.519545 588.367227 469.350416 580.303567 470.818068 C575.088662 471.767256 569.542947 471.240797 564.183999 470.848982 C562.559304 470.730177 561.063271 468.852827 559.508279 467.780928 C560.378823 466.720808 561.203408 465.618452 562.130410 464.610212 C563.631020 462.978163 565.761819 462.073378 565.455727 458.953199 C565.304177 457.408369 567.352944 455.376936 568.809121 453.988020 C580.244790 443.080793 591.460427 431.911604 603.362283 421.532240 C617.949746 408.810682 634.142800 398.504011 652.903115 392.845106 C658.691934 391.098921 664.503457 389.338209 670.418618 388.153120 C672.290322 387.778120 675.557778 388.672133 676.325967 390.034468 C677.149758 391.495497 676.288430 394.467360 675.288979 396.304792 C668.808511 408.219862 660.240823 418.561964 650.659402 428.104902 C650.020608 428.741163 649.695168 429.692091 648.973916 430.746595 z"/><path class="selected"  fill="#000000" opacity="1.000000" stroke="none" 
 	d="
M136.473916 441.746595 C128.223916 433.020948 120.057649 424.694166 112.287110 416.013136 C107.721986 410.913099 103.715806 405.302534 99.600106 399.815168 C97.833039 397.459181 94.902741 394.682539 97.379990 391.785200 C99.514802 389.288466 102.180253 387.519423 106.759957 388.749311 C124.721681 393.573103 141.660684 400.435377 156.985711 411.018782 C168.208840 418.769453 178.387734 427.644697 187.182778 438.202375 C190.575265 442.274794 193.794854 447.177412 199.899743 448.352339 C201.043969 448.572523 201.879952 450.706251 202.740258 452.033400 C205.713509 456.620131 208.911874 461.091749 211.491342 465.893568 C213.713693 470.030592 211.719705 473.139601 207.278024 472.965101 C194.444619 472.460920 182.382256 468.912001 170.519128 464.088942 C157.749261 458.897261 146.675088 451.369764 136.473916 441.746595 z"/><path class="selected"  fill="#000000" opacity="1.000000" stroke="none" 
 	d="
M290.223916 517.996595 C301.278512 519.426222 309.102670 525.542738 315.742288 533.230055 C317.756265 535.561781 319.644906 539.201002 319.372933 542.027967 C318.960610 546.313673 314.556497 546.595533 310.840615 547.062391 C308.249337 547.387953 305.762277 548.472609 303.179727 548.957289 C300.469979 549.465956 297.702279 549.667311 294.958566 549.991407 C294.630837 550.030104 294.260018 549.902601 293.967233 550.010145 C283.753579 553.761854 278.488656 545.318983 271.676156 540.852247 C268.995248 539.094435 266.866616 536.514906 264.270303 534.603163 C258.748696 530.537367 258.317239 526.387953 265.499581 522.060011 C272.942788 517.574720 281.383981 517.798842 290.223916 517.996595 M297.223916 530.496595 C296.092233 528.996595 295.246957 526.666700 293.773171 526.158033 C289.933175 524.832838 288.260476 528.029005 287.323800 530.873304 C286.252023 534.127638 288.827340 535.445692 291.456582 535.944716 C294.845315 536.587843 297.452218 535.761976 297.223916 530.496595 z"/><path class="selected"  fill="#000000" opacity="1.000000" stroke="none" 
 	d="
M464.223916 526.996595 C473.772134 518.125135 484.655496 516.213758 496.572793 518.922865 C500.917031 519.910414 505.403817 521.072462 509.227548 523.219801 C511.228372 524.343397 512.877419 527.768324 512.892373 530.165113 C512.902383 531.765394 509.797677 533.436171 508.008126 534.984449 C505.472360 537.178297 502.490670 538.971083 500.351449 541.489149 C491.279336 552.167738 481.416940 553.343214 467.934396 548.264113 C466.053109 547.555433 463.843453 547.691969 461.994027 546.931227 C459.008431 545.703077 455.226846 544.695875 453.670022 542.344740 C452.720834 540.911268 454.832162 536.803480 456.432015 534.495192 C458.390969 531.668776 461.252602 529.467909 464.223916 526.996595 M482.223916 536.496595 C486.519357 535.197462 485.678628 531.855726 484.610848 529.118300 C484.114846 527.846754 481.606240 526.316175 480.364877 526.579054 C476.912331 527.310072 475.446084 530.456251 476.454415 533.489821 C476.979012 535.068190 479.890603 535.853224 482.223916 536.496595 z"/></svg>